# xmcd
#
# Track frame offsets:
#  150
#  16729
#  33781
#  53480
#  74210
#  94829
#  113859
#  130103
#  148298
#  163428
#  186108
#  201126
#  219098
#  239076
#  256964
#  277833
#  290037
#  310628
#
# Disc length: 4422 seconds
#
# Revision: 0
# Processed by: cddbd v1.4PL0 Copyright (c) Steve Scherf et al.
# Submitted via: AltoMP3_Maker 3.0
#
DISCID=0e114412
DTITLE=爱你在心口难开 - 欧美怀旧经典
DYEAR=1900
DGENRE=
TTITLE0=爱你在心口难开`
TTITLE1=巴比伦河
TTITLE2=电话诉衷肠
TTITLE3=你那完整的爱`
TTITLE4=泪洒天堂
TTITLE5=带走我的呼吸
TTITLE6=人鬼情未了
TTITLE7=说你说我
TTITLE8=因为我爱你
TTITLE9=无心快语
TTITLE10=悠久
TTITLE11=无穷的热情
TTITLE12=此情可待
TTITLE13=昨日重现
TTITLE14=卡萨布兰卡
TTITLE15=何日君再来
TTITLE16=爱你到永远
TTITLE17=爱无止尽
EXTD=
EXTT0=
EXTT1=
EXTT2=
EXTT3=
EXTT4=
EXTT5=
EXTT6=
EXTT7=
EXTT8=
EXTT9=
EXTT10=
EXTT11=
EXTT12=
EXTT13=
EXTT14=
EXTT15=
EXTT16=
EXTT17=
PLAYORDER=
